# xmcd
#
# Track frame offsets:
# 150
# 19357
# 31412
# 45617
# 57943
# 69367
# 81621
# 96306
# 106360
# 120788
# 131289
# 143339
# 158978
# 170943
#
# Disc length: 2503 seconds
#
#
# Revision: 0
# Processed by: cddbd v1.5.2PL0 Copyright (c) Steve Scherf et al.
# Submitted via: FreeRIP 2.91 
#
DISCID=bb09c50e
DTITLE=Wenche - Dance the night away
DYEAR=2007
DGENRE=Country
TTITLE0=Dance the night away
TTITLE1=Love's gonna live here again
TTITLE2=Walkin' on sunshine
TTITLE3=There's a kind of hush
TTITLE4=Why'd you come in here lookin' like that
TTITLE5=Mi vida loca (My crazy life)
TTITLE6=Mama he's crazy
TTITLE7=Gettin' over you
TTITLE8=Here' comes my baby
TTITLE9=Your good girls gonna go bad
TTITLE10=Honky tonk saturday night
TTITLE11=Hold me
TTITLE12=Little bitty
TTITLE13=If tomorrow never comes
EXTD=My Way Music
EXTT0=
EXTT1=
EXTT2=
EXTT3=
EXTT4=
EXTT5=
EXTT6=
EXTT7=
EXTT8=
EXTT9=
EXTT10=
EXTT11=
EXTT12=
EXTT13=
PLAYORDER=
